<?xml version="1.0" encoding="UTF-8"?>
<svg version="1.1" xmlns="http://www.w3.org/2000/svg" width="1180" height="634">
<path d="M0 0 C2.20227127 0.01249238 4.40446329 0.01755484 6.60676575 0.02117538 C28.4527507 0.07324938 49.64634484 1.11987366 71.10493469 5.57479477 C72.36426819 5.81778305 73.62360168 6.06077133 74.9210968 6.31112289 C110.36375285 13.17458599 141.8447081 28.01578165 172.10908508 47.33236313 C174.362691 48.73525004 176.65304118 50.06720284 178.94477844 51.40682602 C184.29034574 54.60156228 189.22242816 58.23533951 194.16743469 62.01229477 C195.0008136 62.6420018 195.8341925 63.27170883 196.69282532 63.92049789 C199.17035831 65.79648202 201.63820281 67.68464042 204.10493469 69.57479477 C205.29747864 70.4771788 205.29747864 70.4771788 206.51411438 71.39779282 C211.0454308 74.85802763 215.2535576 78.4275268 219.22993469 82.51229477 C219.7443512 83.03243149 220.2587677 83.55256821 220.78877258 84.08846664 C223.48266741 86.8338155 226.06518298 89.63036903 228.54243469 92.57479477 C231.56034757 96.12873597 234.90561179 99.20186691 238.35493469 102.32479477 C242.8221994 106.40368624 247.22014313 110.52931482 251.41743469 114.88729477 C252.3210675 115.81155258 253.22470032 116.73581039 254.15571594 117.68807602 C256.64583082 121.37584135 256.86162386 123.20442979 256.10493469 127.57479477 C254.46352886 129.90185114 253.04111618 131.62147895 251.04243469 133.57479477 C250.54163391 134.08880844 250.04083313 134.60282211 249.52485657 135.13241196 C248.52486077 136.15493018 247.51765604 137.17045492 246.50288391 138.17831039 C245.28432015 139.39559728 244.09964619 140.64662293 242.92134094 141.90291977 C239.58644339 145.43145654 239.58644339 145.43145654 238.10493469 146.57479477 C237.11493469 146.57479477 236.12493469 146.57479477 235.10493469 146.57479477 C234.85743469 147.37916977 234.60993469 148.18354477 234.35493469 149.01229477 C233.10493469 151.57479477 233.10493469 151.57479477 230.97993469 152.38729477 C230.36118469 152.44916977 229.74243469 152.51104477 229.10493469 152.57479477 C229.10493469 153.23479477 229.10493469 153.89479477 229.10493469 154.57479477 C228.44493469 154.57479477 227.78493469 154.57479477 227.10493469 154.57479477 C227.10493469 155.23479477 227.10493469 155.89479477 227.10493469 156.57479477 C226.44493469 156.57479477 225.78493469 156.57479477 225.10493469 156.57479477 C225.01212219 157.41010727 225.01212219 157.41010727 224.91743469 158.26229477 C223.76124549 161.55298712 221.61168306 163.15401171 219.10493469 165.57479477 C218.07468957 166.59010159 217.04610222 167.60709273 216.01899719 168.62557602 C215.48403625 169.15538071 214.94907532 169.68518539 214.39790344 170.23104477 C209.60158235 174.99366806 204.92472174 179.7803901 200.52680969 184.91854477 C198.48498342 187.29693582 196.45072386 189.48964884 194.10493469 191.57479477 C193.11493469 191.57479477 192.12493469 191.57479477 191.10493469 191.57479477 C191.10493469 192.23479477 191.10493469 192.89479477 191.10493469 193.57479477 C190.44493469 193.57479477 189.78493469 193.57479477 189.10493469 193.57479477 C188.91930969 194.25541977 188.73368469 194.93604477 188.54243469 195.63729477 C184.94848837 202.98144595 177.21599414 208.8182254 170.10493469 212.57479477 C166.41743469 213.01229477 166.41743469 213.01229477 163.10493469 211.57479477 C161.20167358 209.71518644 159.56042995 207.75306536 157.90180969 205.67245102 C156.18152175 203.66420184 154.5807396 202.32212358 152.41743469 200.82479477 C146.84531438 196.87424853 142.25006818 191.87865773 137.50068665 187.00252914 C135.3876585 184.84108283 133.24406678 182.71036163 131.10493469 180.57479477 C130.53130188 179.98956039 129.95766907 179.40432602 129.36665344 178.80135727 C125.13646802 174.49769468 120.72290384 170.45932176 116.10493469 166.57479477 C115.03928284 165.66032578 115.03928284 165.66032578 113.95210266 164.72738266 C110.64424127 162.22648968 107.23431595 160.35484717 103.55805969 158.45760727 C102.82859131 158.07796829 102.09912292 157.69832932 101.34754944 157.30718613 C99.8025484 156.50590315 98.25598232 155.70763147 96.70796204 154.91219711 C94.39766026 153.72180921 92.09696796 152.51421852 89.79634094 151.30526352 C79.82792429 146.12747422 69.81698479 141.95119026 59.10493469 138.57479477 C58.05499329 138.24286118 57.00505188 137.91092758 55.92329407 137.56893539 C42.90735883 133.64179067 30.66630252 131.60231192 17.10493469 131.57479477 C14.61274597 131.54887 12.12055858 131.52281812 9.62837219 131.49666977 C2.9254737 131.43818533 -3.77394686 131.47309077 -10.47660828 131.54647446 C-13.21328256 131.56914652 -15.94399429 131.55560295 -18.68022156 131.52010727 C-37.92167396 131.78975725 -57.78505766 139.07474815 -74.89506531 147.57479477 C-76.25930884 148.23175088 -77.62390383 148.88797753 -78.98881531 149.54354477 C-94.84147216 157.23671857 -112.29136045 165.8797129 -123.47319031 179.91463852 C-125.64902273 182.45510219 -127.98342921 183.94969555 -130.89506531 185.57479477 C-131.55506531 185.57479477 -132.21506531 185.57479477 -132.89506531 185.57479477 C-133.1464325 186.11749008 -133.39779968 186.66018539 -133.65678406 187.21932602 C-135.14910852 190.05803786 -136.88536353 192.62196159 -138.70756531 195.26229477 C-139.09355896 195.82480942 -139.47955261 196.38732407 -139.87724304 196.96688461 C-142.16970652 200.26098791 -144.55779187 203.43226796 -147.09819031 206.53963852 C-154.69091714 215.88427689 -159.68204985 224.80926009 -163.91947937 236.05526352 C-165.65392263 240.53460649 -167.60422487 244.9208292 -169.52006531 249.32479477 C-170.27664187 251.09764899 -171.03188259 252.87107398 -171.78569031 254.64510727 C-173.05728343 257.63392389 -174.3546206 260.6070681 -175.69194031 263.56698227 C-181.90138738 277.86100647 -183.35671191 293.1093698 -183.89506531 308.57479477 C-183.97434265 310.46971664 -183.97434265 310.46971664 -184.05522156 312.40291977 C-184.41950779 325.2424393 -182.74592185 337.89124865 -180.89506531 350.57479477 C-180.79355164 351.28265121 -180.69203796 351.99050766 -180.58744812 352.7198143 C-176.46333964 379.80146 -160.93807798 410.08924251 -143.32035828 430.86092758 C-141.11619252 433.51136328 -139.11399067 436.28983214 -137.08256531 439.07479477 C-115.5910557 467.7432136 -84.21211908 482.85928526 -51.57084656 495.48104477 C-48.89506531 496.57479477 -48.89506531 496.57479477 -47.89506531 497.57479477 C-44.98748808 498.02286394 -42.09205846 498.41379284 -39.17240906 498.76620102 C-38.2795369 498.8757663 -37.38666473 498.98533157 -36.46673584 499.09821701 C-34.56283953 499.32997455 -32.65864756 499.5593136 -30.75419617 499.78646469 C-27.89552614 500.12973442 -25.03893836 500.48753894 -22.18217468 500.84627914 C-4.1132689 503.05516361 13.16195915 502.72107383 31.27339172 500.86483383 C33.0154522 500.68639205 34.75850663 500.51703663 36.50288391 500.36288071 C56.42070474 498.52595092 74.7379519 488.77427779 92.60493469 480.38729477 C93.60017151 479.92524643 94.59540833 479.46319809 95.62080383 478.98714828 C105.18528742 474.37819661 113.41467402 468.17474219 121.47993469 461.32479477 C126.94268185 456.70133761 126.94268185 456.70133761 129.74946594 454.51229477 C131.91179575 452.73366196 133.6312282 450.97001547 135.41743469 448.82479477 C140.23106425 443.21931273 145.135123 437.88358884 151.16743469 433.57479477 C154.69852126 431.02228452 157.33316937 428.17997722 160.12446594 424.85213852 C165.2281678 418.9833847 170.85954207 413.34294588 176.85493469 408.38729477 C179.31320946 406.35326128 181.35768029 404.19959117 183.41743469 401.76229477 C186.85581644 397.71074788 190.67801374 394.24336627 194.67524719 390.75057602 C197.25153138 388.44351767 199.67554343 386.03624545 202.10493469 383.57479477 C203.30208611 382.37611334 204.50006573 381.17825873 205.69868469 379.98104477 C206.33677063 379.34295883 206.97485657 378.70487289 207.63227844 378.04745102 C212.45649719 373.22323227 217.28071594 368.39901352 222.10493469 363.57479477 C221.11493469 364.06979477 221.11493469 364.06979477 220.10493469 364.57479477 C218.39501929 364.67100656 216.68132366 364.70275536 214.96870422 364.7041893 C213.87550873 364.707276 212.78231323 364.7103627 211.6559906 364.71354294 C210.44547028 364.71158417 209.23494995 364.7096254 207.98774719 364.70760727 C206.70802032 364.70915314 205.42829346 364.71069901 204.10978699 364.71229172 C199.81648204 364.71624381 195.52322964 364.70859695 191.22993469 364.69979477 C190.49637756 364.69852459 189.76282043 364.69725441 189.0070343 364.69594574 C179.37736855 364.67926045 169.74781891 364.64636578 160.11822891 364.60524082 C153.64993558 364.57851569 147.1816695 364.56420429 140.71333313 364.55282211 C132.0152689 364.53659205 123.3175313 364.49904515 114.6196537 364.43949127 C109.89074897 364.40745048 105.16213977 364.38362671 100.43312073 364.37978745 C95.95202161 364.37559342 91.47169118 364.34758252 86.99083328 364.30148888 C85.33186929 364.28849752 83.67281397 364.2840452 82.01380539 364.28860664 C79.73862134 364.29347607 77.46576852 364.26769842 75.19087219 364.2342186 C73.27347229 364.22422585 73.27347229 364.22422585 71.31733704 364.21403122 C68.10493469 363.57479477 68.10493469 363.57479477 65.69355774 361.19446945 C63.90550028 358.24592299 63.40453834 356.94647025 64.10493469 353.57479477 C65.82759094 351.61776352 65.82759094 351.61776352 68.16743469 349.76229477 C71.19146117 347.33790431 73.80364255 344.84170783 76.31977844 341.90682602 C81.24898369 336.16485818 86.68781951 330.94582598 92.07759094 325.64120102 C96.43892307 321.32187209 100.60131151 316.92915342 104.59907532 312.27206039 C106.45483884 310.18041512 108.4608474 308.36686773 110.60493469 306.57479477 C114.10045166 303.54338846 117.10315141 300.37915791 120.08540344 296.85213852 C124.07471056 292.35355815 128.41981588 288.18892618 132.69697571 283.96615219 C135.58471994 281.11245801 138.45592806 278.24477468 141.28071594 275.32870102 C144.75849199 271.76191425 148.13654051 268.42824819 152.22993469 265.57479477 C156.16088826 262.77595583 158.82461793 259.40462328 161.65962219 255.52791977 C163.10493469 253.57479477 163.10493469 253.57479477 165.10493469 251.57479477 C166.09493469 251.57479477 167.08493469 251.57479477 168.10493469 251.57479477 C168.35630188 250.83358383 168.60766907 250.09237289 168.86665344 249.32870102 C170.19746846 246.369002 171.59096434 244.74979876 173.91743469 242.51229477 C174.63415344 241.82006821 175.35087219 241.12784164 176.08930969 240.41463852 C178.10493469 238.57479477 178.10493469 238.57479477 180.66743469 236.57479477 C182.85791263 234.77747954 184.47705082 233.03658059 186.29634094 230.88338852 C189.79352586 226.84883904 193.53945517 223.23244119 197.47993469 219.63729477 C203.48639032 214.0783929 209.37554812 208.4196027 215.16743469 202.63729477 C215.856922 201.95223862 216.5464093 201.26718246 217.25679016 200.56136703 C220.42598358 197.38331251 223.49490929 194.1692358 226.41743469 190.76229477 C230.58224809 185.93842103 235.07921519 181.45028907 239.5929718 176.95638657 C241.04017854 175.51454256 242.48195495 174.06742361 243.92329407 172.61971664 C248.6307412 167.90914415 253.4017191 163.33053744 258.45820618 158.9944725 C263.88638546 154.31473009 268.65009453 149.00861587 273.31587219 143.58651352 C276.42217179 140.09362205 279.77183224 136.84907776 283.10493469 133.57479477 C284.77309546 131.90962354 286.43942183 130.24261444 288.10493469 128.57479477 C289.52151508 127.15804183 290.93819101 125.74138442 292.35493469 124.32479477 C293.12837219 123.55135727 293.90180969 122.77791977 294.69868469 121.98104477 C297.08410136 119.5956281 299.46951803 117.21021144 301.85493469 114.82479477 C302.59783752 114.08181137 303.34074036 113.33882797 304.1061554 112.57332993 C305.68197607 110.99770173 307.25855148 109.42282837 308.83540344 107.84823227 C310.46812529 106.21270022 312.09504307 104.57136655 313.71821594 102.92635727 C314.60895813 102.02659164 315.49970032 101.12682602 316.41743469 100.19979477 C317.3004425 99.30518539 318.18345032 98.41057602 319.09321594 97.48885727 C321.30801941 95.29672324 323.61381982 93.24748285 325.97602844 91.21541977 C330.16529373 87.58726544 333.99782802 83.6741751 337.85493469 79.69979477 C344.209996 73.25221277 350.63844528 67.7214934 358.10493469 62.57479477 C359.25735657 61.7298143 359.25735657 61.7298143 360.43305969 60.86776352 C367.94124015 55.41539437 375.92993393 50.70698845 383.87251282 45.92391586 C385.89914055 44.69916249 387.91756619 43.46228447 389.93305969 42.21932602 C424.94639864 20.72519638 463.17997296 6.15605207 504.10493469 1.57479477 C504.87334183 1.48823624 505.64174896 1.4016777 506.43344116 1.31249619 C514.38245943 0.49627628 522.31086358 0.35784004 530.29634094 0.30135727 C531.37597264 0.29337175 531.37597264 0.29337175 532.47741508 0.28522491 C536.30970558 0.2586307 540.14196553 0.23923881 543.97431946 0.22469711 C547.06219987 0.21156367 550.14938666 0.18408718 553.23701477 0.14266586 C607.16835551 -0.56322423 660.6246182 11.26963106 707.10493469 39.57479477 C707.74656555 39.95957993 708.38819641 40.34436508 709.04927063 40.74081039 C728.20286021 52.2536911 746.67879293 65.3763801 763.10493469 80.57479477 C763.66696594 81.06850571 764.22899719 81.56221664 764.80805969 82.07088852 C766.10493469 83.57479477 766.10493469 83.57479477 766.10493469 86.57479477 C766.83236877 86.81544662 767.55980286 87.05609848 768.3092804 87.30404282 C771.50127211 88.75494814 773.35458504 90.43663427 775.83540344 92.90682602 C776.71575256 93.78089096 777.59610168 94.6549559 778.50312805 95.55550766 C779.42359924 96.48999741 780.34407043 97.42448715 781.29243469 98.38729477 C781.76569183 98.86520462 782.23894897 99.34311447 782.72654724 99.83550644 C789.27068724 106.45541354 795.50991987 113.08383306 800.8339386 120.74715805 C802.37575169 122.96421775 803.95012805 125.15694016 805.52290344 127.35213852 C812.07567042 136.55051348 818.42661453 145.80615923 824.10493469 155.57479477 C824.44266907 156.15551743 824.78040344 156.73624008 825.12837219 157.33456039 C827.85419346 162.0450581 830.4902588 166.80190857 833.10493469 171.57479477 C833.77710022 172.79030014 833.77710022 172.79030014 834.46284485 174.03036118 C848.47092248 199.47360422 856.11775408 226.1652842 861.97993469 254.51229477 C862.13131897 255.24022232 862.28270325 255.96814987 862.43867493 256.71813583 C862.8735203 258.82394904 863.2996732 260.9313066 863.72212219 263.03963852 C864.08732971 264.85902939 864.08732971 264.85902939 864.45991516 266.71517563 C866.14708513 276.8107358 866.28288016 286.82792529 866.30805969 297.03573227 C866.31088707 297.81800816 866.31371445 298.60028404 866.3166275 299.40626526 C866.33154345 303.55310262 866.34081863 307.69990594 866.34516907 311.84676743 C866.34953894 315.23099258 866.3633831 318.61496067 866.38618469 321.99911118 C866.62264242 357.82200116 866.62264242 357.82200116 863.10493469 374.57479477 C862.89111145 375.69982407 862.67728821 376.82485336 862.45698547 377.98397446 C860.9586915 385.57806718 859.0435829 393.08296751 857.10493469 400.57479477 C856.77670715 401.84548813 856.44847961 403.11618149 856.11030579 404.42538071 C850.31171143 426.49981117 841.70094808 446.40105593 831.10493469 466.57479477 C830.64699524 467.46521469 830.18905579 468.35563461 829.71723938 469.27303696 C824.33806701 479.7071211 817.66484384 489.0435168 810.6698761 498.45125961 C808.77152261 501.02721572 806.92791838 503.63865967 805.08930969 506.25741196 C794.83660588 520.83344737 794.83660588 520.83344737 790.10493469 525.57479477 C789.11493469 525.57479477 788.12493469 525.57479477 787.10493469 525.57479477 C786.76655579 526.63440414 786.76655579 526.63440414 786.42134094 527.71541977 C784.83587944 531.15921152 782.62845151 533.61628474 780.04243469 536.32479477 C779.55218811 536.84775131 779.06194153 537.37070786 778.55683899 537.90951157 C771.719319 545.16585874 764.7144857 552.12762633 757.10493469 558.57479477 C756.24513 559.32374008 755.38532532 560.07268539 754.49946594 560.84432602 C742.58533478 571.05414153 729.58246246 579.5368035 716.04975891 587.43465805 C714.02043622 588.62433128 712.00152867 589.83034803 709.98384094 591.03963852 C702.89390515 595.27625759 695.74970822 599.40371628 688.47993469 603.32479477 C687.55108459 603.83526352 687.55108459 603.83526352 686.60346985 604.35604477 C675.17129172 610.42674441 662.65794329 614.59841816 650.44795227 618.82479477 C649.02849462 619.31868693 647.61109609 619.81854371 646.19599915 620.32479477 C641.70217566 621.93208616 637.18557329 623.41696774 632.61811829 624.80172348 C630.94464638 625.3164941 629.27753489 625.852422 627.61763 626.4093895 C605.26200653 633.76026814 581.63361013 632.4913687 558.39350891 632.35702133 C552.43400025 632.32287641 546.47610072 632.3431282 540.51664734 632.37764072 C492.90780866 632.61250416 492.90780866 632.61250416 470.10493469 625.57479477 C468.77839874 625.189496 468.77839874 625.189496 467.42506409 624.79641342 C461.83356998 623.17139899 456.33916861 621.3407849 450.85493469 619.38729477 C450.06017731 619.11021683 449.26541992 618.83313889 448.44657898 618.54766464 C429.33155047 611.88109077 409.55758358 604.33721353 392.85493469 592.69979477 C388.8909422 589.96650031 384.75024892 587.7775037 380.47993469 585.57479477 C375.86491564 583.17613271 371.7451661 580.78606184 367.96040344 577.19588852 C365.40097618 574.95975734 362.60181045 573.1021057 359.79243469 571.19979477 C350.89800052 565.11672519 342.9651486 558.60557895 335.42500305 550.92928696 C332.14211414 547.58874783 328.77942541 544.44063882 325.21821594 541.40291977 C322.00090997 538.61974196 318.87045447 535.74085209 315.76631165 532.83236313 C313.20679473 530.44448393 310.62913656 528.16846282 307.85493469 526.03182602 C300.56473055 520.18292499 300.56473055 520.18292499 299.32759094 515.85604477 C299.38209111 510.31259882 301.29161916 506.91290614 305.02290344 502.93026352 C306.23454163 501.63258041 306.23454163 501.63258041 307.47065735 500.30868149 C311.52382965 496.10224744 315.60400658 491.92682262 319.74385071 487.80550766 C321.17333186 486.38141985 322.5973398 484.95201433 324.02095032 483.52206039 C328.6412235 478.90821766 333.31063141 474.43724502 338.26631165 470.18636703 C341.36548417 467.46991001 344.26582561 464.56174153 347.16743469 461.63729477 C347.77740295 461.02539291 348.38737122 460.41349106 349.01582336 459.78304672 C352.6452842 456.11859845 356.12460351 452.37738168 359.46040344 448.44198227 C362.81382358 444.63453613 366.48830101 441.12978129 370.10493469 437.57479477 C370.97118469 436.70854477 371.83743469 435.84229477 372.72993469 434.94979477 C373.51368469 434.16604477 374.29743469 433.38229477 375.10493469 432.57479477 C375.67083313 431.99729477 376.23673157 431.41979477 376.81977844 430.82479477 C378.56339426 429.05537491 380.32926442 427.31195653 382.10493469 425.57479477 C382.76493469 424.91479477 383.42493469 424.25479477 384.10493469 423.57479477 C386.10493469 422.57479477 386.10493469 422.57479477 389.35493469 422.32479477 C395.78542488 424.4682915 399.10781404 429.95357391 403.10493469 435.19979477 C405.38604115 437.90860869 407.91196812 440.03082586 410.60884094 442.31698227 C412.52081138 444.04643284 414.29573439 445.78250204 416.06977844 447.64510727 C428.78669113 460.96930965 442.91537783 471.83224288 459.71821594 479.46883774 C462.55715414 480.78434408 465.36109076 482.16379164 468.16743469 483.54745102 C488.78655015 493.68447356 506.98173454 499.44019757 529.79243469 501.76229477 C530.59817932 501.84632553 531.40392395 501.93035629 532.23408508 502.01693344 C545.13573516 503.20854865 557.8692862 502.5319735 570.72993469 501.19979477 C572.68286438 501.01030258 572.68286438 501.01030258 574.67524719 500.81698227 C578.48947066 500.43555992 582.29658678 500.01059854 586.10493469 499.57479477 C587.73012024 499.41889877 587.73012024 499.41889877 589.38813782 499.25985336 C598.79816509 498.15116732 606.78026312 494.7595629 615.35493469 490.94979477 C616.83067259 490.30449383 618.30674969 489.65996811 619.78315735 489.01620102 C622.64439661 487.76496626 625.5008977 486.50374055 628.35395813 485.23397446 C631.34179158 483.9062761 634.34522363 482.62290572 637.36274719 481.36385727 C664.80651119 469.64097318 688.18523801 446.26407485 704.10493469 421.57479477 C704.85441355 420.45898463 705.60576354 419.34442937 706.35884094 418.23104477 C711.85322066 410.03136373 716.26106806 401.66049912 720.10493469 392.57479477 C720.54168518 391.55458237 720.54168518 391.55458237 720.98725891 390.51375961 C726.20800295 378.17822093 729.93733426 365.57752727 733.10493469 352.57479477 C733.3181134 351.73642075 733.53129211 350.89804672 733.75093079 350.03426743 C744.15500948 308.27769148 733.50091746 259.98463209 711.69429016 223.19491196 C708.36445441 217.84505536 704.79480323 212.68120727 701.10493469 207.57479477 C700.68679504 206.99229965 700.2686554 206.40980453 699.83784485 205.80965805 C697.33243949 202.33975959 694.74128031 198.94585966 692.10493469 195.57479477 C690.99698547 194.12459946 690.99698547 194.12459946 689.86665344 192.64510727 C685.67007412 187.29609943 681.47488482 182.89809212 675.95259094 178.91463852 C674.10493469 177.57479477 674.10493469 177.57479477 672.10493469 175.57479477 C672.10493469 174.25479477 672.10493469 172.93479477 672.10493469 171.57479477 C671.25286438 171.33760727 670.40079407 171.10041977 669.52290344 170.85604477 C665.71749284 169.42955943 662.69679386 167.41093586 659.41743469 165.07479477 C651.38310315 159.52309619 642.88013157 155.09545378 634.1920929 150.66707993 C632.27075556 149.66157481 630.39526208 148.60562365 628.52290344 147.51229477 C619.52970587 142.41443649 610.37296046 138.28431523 600.05024719 137.03182602 C596.82547376 136.53143014 593.95136216 135.60071953 590.85493469 134.57479477 C576.13913621 130.19762053 559.378771 129.86051321 544.10493469 130.57479477 C542.80628479 130.628452 542.80628479 130.628452 541.48139954 130.68319321 C513.77729138 131.96306602 484.40196255 137.06373384 461.20014954 153.19540024 C458.69286487 154.84608287 456.12300951 156.06632333 453.38716125 157.28499985 C443.42740491 161.7357819 436.00176093 168.1741272 428.10493469 175.57479477 C426.97504957 176.6117248 425.84358759 177.64693977 424.71040344 178.68026352 C422.72669142 180.48952101 420.7542168 182.30822872 418.78852844 184.13729477 C416.8708579 185.87910906 414.95189052 187.53693585 412.94868469 189.17245102 C410.71244759 191.06157989 408.9715933 192.74794498 407.16743469 195.01229477 C403.87013613 198.87341711 400.27733622 202.27422863 396.54243469 205.69979477 C389.71566256 211.97866338 383.10359365 218.45864364 376.54243469 225.01229477 C375.83049454 225.72062454 375.83049454 225.72062454 375.10417175 226.44326401 C368.63993046 232.87609073 368.63993046 232.87609073 362.64009094 239.73495102 C361.80348938 240.67209946 360.96688782 241.60924789 360.10493469 242.57479477 C359.11493469 242.57479477 358.12493469 242.57479477 357.10493469 242.57479477 C356.91930969 243.23479477 356.73368469 243.89479477 356.54243469 244.57479477 C352.57501531 252.85462653 344.94014449 258.44042972 337.99555969 264.15682602 C335.90436749 265.90608003 334.00251383 267.63472727 332.10493469 269.57479477 C332.87761751 269.5711076 333.65030033 269.56742043 334.44639778 269.56362152 C353.25020035 269.47527206 372.05396147 269.40908593 390.85792732 269.36754608 C399.95140666 269.3469236 409.04474742 269.31880903 418.13813782 269.27303696 C426.06423532 269.23315954 433.99023246 269.20735967 441.91642749 269.19844079 C446.11306805 269.19322755 450.30942149 269.18098126 454.50597 269.15187454 C458.45731032 269.12469103 462.4082457 269.11635561 466.35967064 269.12236404 C467.80847437 269.12126511 469.25729187 269.11332838 470.70601463 269.09797287 C472.68753084 269.07800324 474.66926513 269.08525601 476.65086365 269.0937767 C477.75885881 269.09008953 478.86685398 269.08640236 480.00842476 269.08260345 C483.89352316 269.70014118 486.07477873 271.10379205 489.10493469 273.57479477 C490.04243469 276.69979477 490.04243469 276.69979477 489.10493469 280.57479477 C486.43111082 284.24158232 483.31618506 287.37845733 480.10493469 290.57479477 C479.35470032 291.37272446 478.60446594 292.17065414 477.83149719 292.99276352 C473.90288571 297.1185358 473.90288571 297.1185358 472.10493469 298.57479477 C471.11493469 298.57479477 470.12493469 298.57479477 469.10493469 298.57479477 C468.74528625 299.67307602 468.74528625 299.67307602 468.37837219 300.79354477 C466.92632078 303.96489631 465.25834378 305.6891862 462.72993469 308.07479477 C460.16896924 310.53315744 457.91083998 312.82507479 455.72993469 315.63729477 C455.19368469 316.27666977 454.65743469 316.91604477 454.10493469 317.57479477 C453.11493469 317.57479477 452.12493469 317.57479477 451.10493469 317.57479477 C450.92204895 318.24591293 450.73916321 318.9170311 450.55073547 319.60848618 C448.46992822 323.87761961 445.33712994 326.7312521 441.97212219 330.03573227 C441.26145599 330.7445253 440.55078979 331.45331833 439.81858826 332.18358994 C438.31401868 333.68144498 436.80585948 335.17570173 435.29438782 336.66659164 C433.002178 338.9278518 430.72061383 341.19940947 428.44087219 343.47323227 C426.97273847 344.93218602 425.50400702 346.39053857 424.03462219 347.84823227 C423.36035187 348.51825272 422.68608154 349.18827316 421.99137878 349.87859726 C418.07907526 353.73339439 414.06937973 357.42446515 409.90193176 361.00237656 C407.05825165 363.4906691 404.39041717 366.14358126 401.72993469 368.82479477 C401.2104425 369.34041977 400.69095032 369.85604477 400.15571594 370.38729477 C397.85894112 372.69000441 395.91556638 374.85884723 394.10493469 377.57479477 C393.11493469 377.57479477 392.12493469 377.57479477 391.10493469 377.57479477 C390.77493469 378.89479477 390.44493469 380.21479477 390.10493469 381.57479477 C389.11493469 381.57479477 388.12493469 381.57479477 387.10493469 381.57479477 C386.88144348 382.2865184 386.65795227 382.99824203 386.4276886 383.73153305 C384.83146662 387.16261484 382.61097291 389.46422318 379.94087219 392.06698227 C379.1745195 392.83052521 379.1745195 392.83052521 378.39268494 393.60949326 C377.3118223 394.68365255 376.22737715 395.75421753 375.13960266 396.8213768 C373.49926281 398.43083058 371.86957687 400.0504491 370.24165344 401.67245102 C369.18367335 402.7212475 368.12509745 403.76944336 367.06587219 404.81698227 C366.58846588 405.2901387 366.11105957 405.76329514 365.6191864 406.25078964 C362.96599541 408.8501391 360.2460303 411.33185109 357.42700195 413.75074387 C353.06532466 417.55752787 348.95891441 421.57989358 344.87226868 425.67806625 C344.0923053 426.45627731 343.31234192 427.23448837 342.50874329 428.03628159 C339.95366565 430.5869895 337.40222643 433.14130066 334.85102844 435.69588852 C333.06333767 437.48290485 331.27549855 439.26977278 329.48751831 441.05649948 C325.74972079 444.79282664 322.01367789 448.53089944 318.27900696 452.27035141 C313.97968606 456.57511308 309.67677496 460.87626085 305.37198204 465.17554992 C301.20713842 469.33528446 297.04513963 473.4978549 292.88430977 477.66160393 C291.12408283 479.42249519 289.36312037 481.18265154 287.60139275 482.9420414 C285.13456115 485.40631712 282.67098543 487.87380399 280.20820618 490.34212875 C279.48853165 491.05977905 278.76885712 491.77742935 278.02737427 492.51682663 C274.04525826 496.51546521 270.23882366 500.61305568 266.55994415 504.89294815 C264.84583853 506.87428424 263.05313635 508.75582375 261.20259094 510.60995102 C260.53936829 511.27446274 259.87614563 511.93897446 259.19282532 512.62362289 C258.52444641 513.28813461 257.8560675 513.95264633 257.16743469 514.63729477 C256.50292297 515.30567368 255.83841125 515.97405258 255.15376282 516.66268539 C251.21524036 520.59356765 247.15868507 524.31671427 242.94648743 527.95150375 C240.37529397 530.21795812 237.99982897 532.6221922 235.60493469 535.07479477 C231.93731621 538.8307896 228.14415817 542.31424491 224.17524719 545.74959946 C221.48902271 548.11778509 218.90942168 550.58646496 216.32539368 553.06502914 C182.44735559 585.46974406 138.60183517 608.33190732 94.04243469 621.82479477 C93.2005661 622.0814592 92.35869751 622.33812363 91.49131775 622.60256577 C88.99947843 623.35840358 86.50416174 624.10143203 84.00727844 624.84041977 C83.2938327 625.05685135 82.58038696 625.27328293 81.84532166 625.49627304 C79.27722247 626.2449694 76.69795704 626.91700288 74.10493469 627.57479477 C73.15983504 627.82271113 73.15983504 627.82271113 72.19564247 628.07563591 C58.56321459 631.578889 45.52496095 632.1521813 31.49946594 632.07088852 C29.27808586 632.07104403 27.05670552 632.07254153 24.83532715 632.07529831 C20.21389041 632.07667147 15.59276811 632.06430451 10.97138977 632.0413475 C5.09145015 632.0129164 -0.78797037 632.01572876 -6.66794872 632.02843761 C-11.24344201 632.03543894 -15.81881832 632.02755579 -20.39429665 632.01518059 C-22.56090659 632.01071279 -24.7275293 632.01028765 -26.89414024 632.01424599 C-39.2743359 632.02628691 -50.82378583 631.46204838 -62.89506531 628.57479477 C-63.74162186 628.38142029 -64.58817841 628.18804581 -65.46038818 627.98881149 C-70.45055175 626.8011106 -75.39221764 625.39205122 -80.33256531 624.01229477 C-81.11165253 623.79581284 -81.89073975 623.5793309 -82.69343567 623.35628891 C-96.85319887 619.39450671 -110.46134895 614.5832706 -123.89506531 608.57479477 C-124.86057312 608.14634262 -125.82608093 607.71789047 -126.82084656 607.27645493 C-135.82466775 603.24311668 -144.59901624 599.27585167 -152.47709656 593.26620102 C-155.48619393 591.16129123 -158.69102032 589.54486942 -161.95756531 587.88729477 C-170.87408422 583.29944797 -178.85112764 577.53028933 -186.89506531 571.57479477 C-187.51220398 571.12281723 -188.12934265 570.67083969 -188.7651825 570.20516586 C-195.22386959 565.46134709 -201.17063696 560.50466365 -206.72709656 554.71541977 C-208.95926714 552.51140269 -211.28845135 550.61652015 -213.77006531 548.69979477 C-222.26477707 542.05175947 -229.49010598 534.36391715 -236.06303406 525.83651352 C-237.75125076 523.75233981 -239.50021079 521.96444832 -241.45756531 520.13729477 C-244.90631328 516.78862208 -247.1934381 513.07989964 -249.68412781 508.98885727 C-252.47852104 504.54433832 -255.6870061 500.39855829 -258.83256531 496.19979477 C-266.55153938 485.83697592 -273.17553257 475.21548659 -279.15678406 463.74276352 C-280.47161017 461.34652987 -281.83282472 459.13724839 -283.33256531 456.86385727 C-286.34063222 452.09113323 -288.27485992 447.0453432 -290.20756531 441.76229477 C-290.78667664 440.1896788 -290.78667664 440.1896788 -291.37748718 438.58529282 C-297.70072778 421.10194652 -302.62711056 403.21385934 -307.16947937 385.19768906 C-307.55949326 383.65675766 -307.95470627 382.11712944 -308.35600281 380.57909775 C-313.56738496 360.49068078 -314.23815719 340.19085749 -314.1558075 319.52108383 C-314.1450231 316.31223506 -314.15581967 313.10394004 -314.16850281 309.89510727 C-314.18088417 293.3246398 -313.25444562 277.10097643 -309.64506531 260.88729477 C-309.42890564 259.88875473 -309.21274597 258.89021469 -308.99003601 257.86141586 C-308.30935217 254.76157437 -307.6074065 251.66750589 -306.89506531 248.57479477 C-306.66802917 247.58817856 -306.44099304 246.60156235 -306.20707703 245.58504868 C-297.16662361 206.86124081 -283.673046 169.13768762 -259.17973328 137.25985336 C-257.73778134 135.36849033 -256.33323489 133.45223714 -254.93022156 131.53182602 C-249.95210514 124.74885683 -244.89109893 118.20682997 -239.14897156 112.04354477 C-237.06201628 109.75765961 -235.08114166 107.406435 -233.11454773 105.01693344 C-226.71075139 97.25493225 -219.70564917 90.18619028 -212.50932312 83.16073227 C-211.11875415 81.79455924 -209.75073102 80.40550616 -208.38725281 79.01229477 C-202.55261019 73.30568507 -196.166061 68.44403982 -189.58256531 63.63729477 C-188.79172546 63.05528305 -188.00088562 62.47327133 -187.18608093 61.87362289 C-184.76343082 60.096488 -182.33133746 58.3332007 -179.89506531 56.57479477 C-179.11880798 56.01034653 -178.34255066 55.44589828 -177.54277039 54.86434555 C-170.67123082 49.94840654 -163.49542751 45.58706304 -156.20756531 41.32479477 C-155.57666992 40.95517624 -154.94577454 40.58555771 -154.29576111 40.20473862 C-136.58697404 29.86565775 -118.39517075 21.00740217 -98.89506531 14.57479477 C-98.09004578 14.3082811 -97.28502625 14.04176743 -96.45561218 13.76717758 C-84.09258089 9.73533142 -71.69718357 6.80404969 -58.89506531 4.57479477 C-57.43974144 4.31900902 -57.43974144 4.31900902 -55.95501709 4.05805588 C-37.22007463 0.85201372 -18.95064315 -0.1188034 0 0 Z " fill="#124DFB" transform="translate(313.8950653076172,2.4252052307128906)"/>
</svg>


