<svg xmlns="http://www.w3.org/2000/svg" width="1180" height="634">
<path fill="#124DFB" d="M314 2h7c21 0 43 2 64 6l4 1c35 7 67 21 97 41l7 4 15 10 3 2 7 6 2 2 13 11 2 2 7 8 10 10 13 12 3 3c3 4 3 6 2 10l-5 6-2 2a295 295 0 0 1-6 6l-5 5h-3l-1 2-3 4h-2v2h-2v2h-2v2a1405 1405 0 0 0-9 10l-2 2a249 249 0 0 0-20 21h-3v2h-2l-1 2c-3 7-11 13-18 17l-7-1-5-6-6-5-15-14-6-6-2-2-13-12-2-2-11-6-2-1a1381 1381 0 0 0-42-19l-3-1a131 131 0 0 0-46-6 1022 1022 0 0 0-29 0 136 136 0 0 0-60 18c-16 8-33 16-45 30l-7 6h-2l-1 2a78 78 0 0 1-6 9l-7 10c-8 9-13 18-17 29l-6 14a3704 3704 0 0 0-6 14c-6 14-7 30-8 45v4c-1 13 1 25 3 38v2c4 27 20 58 38 78l6 9c21 28 53 43 85 56l4 2 9 1 2 1a2378 2378 0 0 0 15 1 235 235 0 0 0 58 0c20-2 39-12 56-20l4-2c9-4 17-10 25-17l9-7 5-6c5-5 10-11 16-15l9-9 17-16 6-7 12-11a167 167 0 0 0 11-11l2-2 14-14-2 1h-16a4336 4336 0 0 1-129 0h-4l-5-3c-2-3-3-5-2-8l4-4 8-8 16-16a225 225 0 0 0 18-19l10-10 13-13a558 558 0 0 0 29-28l3-4h3l1-2c1-3 2-5 5-7l2-2 5-4 5-6 11-11 18-17 2-2 9-10a253 253 0 0 1 32-32c6-4 11-10 15-15l10-10a4450 4450 0 0 0 9-9l3-3 7-7a422876200 422876200 0 0 1 12-12l2-2 3-3 7-6 12-12 20-17 2-2 24-15 6-3c35-22 73-36 114-41h2l24-1h2a3656 3656 0 0 1 21 0c54-1 108 11 154 39l2 1c19 12 38 25 54 40l2 1 1 5 2 1 8 5 2 3 3 3 2 1 18 21 4 7 19 28 1 2a697 697 0 0 1 9 16 280 280 0 0 1 30 89v4c2 10 2 20 2 30v3a4883 4883 0 0 1 0 22c1 36 1 36-3 53l-1 3-5 23-1 4c-6 22-14 42-25 62l-1 3a212 212 0 0 1-25 37l-15 19h-3l-1 2c-1 4-3 6-6 9l-2 1c-6 8-13 15-21 21l-3 2a259 259 0 0 1-44 30l-22 13-2 1c-11 6-23 10-36 14a517 517 0 0 0-22 8c-23 7-46 6-70 6h-18c-47 0-47 0-70-7l-3-1-16-5-3-1a228 228 0 0 1-68-33l-12-8-8-6c-9-6-17-13-25-21l-10-9a321 321 0 0 1-17-16c-8-5-8-5-9-10 0-5 2-9 6-13l2-2a842 842 0 0 1 40-39l2-2 10-11 11-11 3-3 2-2 2-2 5-5 2-2 5-1c7 2 10 7 14 13l8 7 5 5a140 140 0 0 0 52 36c21 10 39 16 62 18h2c13 2 26 1 39 0l4-1 11-1h3a88 88 0 0 0 31-11 1444 1444 0 0 0 17-7 158 158 0 0 0 69-63c6-9 10-17 14-26l1-2c5-12 9-25 12-38l1-3a176 176 0 0 0-33-142l-1-2-8-10-2-3-14-14-4-3v-4l-3-1-10-5a217 217 0 0 0-31-18c-9-5-18-9-28-11l-9-2c-15-4-32-5-47-4h-3c-27 1-57 6-80 23l-8 4a91 91 0 0 0-28 21 807 807 0 0 0-49 46l-1 2-12 13-3 3h-3l-1 2c-4 8-11 14-18 20l-6 5h2a22661 22661 0 0 1 143 0h3c4 0 6 2 9 4v7l-9 10-2 2-6 6h-3l-1 2-5 8-7 7-2 2h-3l-1 2-8 10-2 3a1379 1379 0 0 1-16 15l-2 2a239 239 0 0 1-20 19l-2 2-6 7h-3l-1 4h-3l-1 2c-1 4-3 6-6 8l-2 2a708 708 0 0 1-11 11l-1 2-9 7-12 12-3 2a7127 7127 0 0 0-62 63l-2 2a230 230 0 0 0-19 20l-2 2-2 2a229 229 0 0 1-20 19 185 185 0 0 1-19 17c-34 33-78 56-122 69l-3 1-7 2-2 1-8 2-2 1a155 155 0 0 1-47 4 2633 2633 0 0 1-88-4l-3-1-14-4h-3a295 295 0 0 1-70-30l-9-6c-9-4-17-10-25-16l-2-1-18-16-7-6c-8-7-16-14-22-23l-6-5-8-12-9-12a237 237 0 0 1-31-55l-1-3a556 556 0 0 1-17-58 236 236 0 0 1-6-71 223 223 0 0 1 8-64 278 278 0 0 1 73-141 278 278 0 0 1 43-41l3-2 7-5 2-2 22-13 2-1a290 290 0 0 1 95-36l3-1c19-3 37-4 56-4Z"/>
</svg>